<svg viewBox="0 0 264 278" xmlns="http://www.w3.org/2000/svg"><g fill="#039de7"><path d="M226.013 227.414H37.987c-6.065 0-11-4.935-11-11V61.586c0-6.065 4.935-11 11-11h188.026c6.065 0 11 4.935 11 11v154.828c0 6.065-4.934 11-11 11zM37.987 56.586c-2.757 0-5 2.243-5 5v154.828c0 2.757 2.243 5 5 5h188.026c2.757 0 5-2.243 5-5V61.586c0-2.757-2.243-5-5-5z"/><path d="M100.001 192.246H63.999v-41.509h36.003v41.509zm-30.002-6h24.003v-29.509H69.999zm80.002 6h-36.003v-71.509h36.003zm-30.002-6h24.003v-59.509h-24.003zm80.002 6h-36.003V90.737h36.003zm-30.002-6h24.003V96.737h-24.003z"/></g></svg>