<svg version="1.1" xmlns="http://www.w3.org/2000/svg" xmlns:xlink="http://www.w3.org/1999/xlink" x="0px" y="0px"
	 viewBox="0 0 100 100" style="enable-background:new 0 0 100 100;" xml:space="preserve">
<g id="Vrstva_76">
	<g>
		<g>
			<path d="M49.553,62.838c-0.289,0-0.578-0.083-0.829-0.25L11.195,37.696c-0.418-0.277-0.669-0.744-0.671-1.246
				c-0.001-0.501,0.248-0.97,0.664-1.249L49.61,9.417c0.503-0.339,1.16-0.34,1.665-0.005l37.529,24.891
				c0.418,0.277,0.67,0.744,0.671,1.246c0.001,0.501-0.248,0.97-0.664,1.249L50.389,62.583
				C50.136,62.753,49.844,62.838,49.553,62.838z M14.727,36.44l34.821,23.096l35.725-23.975L50.451,12.465L14.727,36.44z"/>
		</g>
		<g>
			<path d="M49.553,76.838c-0.289,0-0.578-0.083-0.829-0.25L11.195,51.696c-0.69-0.458-0.879-1.389-0.421-2.079
				c0.458-0.691,1.389-0.879,2.079-0.421l36.694,24.339L87.14,48.308c0.687-0.462,1.619-0.28,2.081,0.409
				c0.462,0.688,0.278,1.62-0.409,2.081L50.389,76.583C50.136,76.753,49.844,76.838,49.553,76.838z"/>
		</g>
		<g>
			<path d="M49.553,90.838c-0.289,0-0.578-0.083-0.829-0.25L11.195,65.696c-0.69-0.458-0.879-1.389-0.421-2.079
				c0.458-0.691,1.389-0.879,2.079-0.421l36.694,24.339L87.14,62.308c0.687-0.463,1.619-0.28,2.081,0.409
				c0.462,0.688,0.278,1.62-0.409,2.081L50.389,90.583C50.136,90.753,49.844,90.838,49.553,90.838z"/>
		</g>
	</g>
</g>
<script  type="text/javascript">
    <![CDATA[
         var c=window.location.search.split('color=')[1]; c=parseInt(c,16); if(!isNaN(c)){c=c.toString(16);var p=document.getElementsByTagName('path');for(var i=0,l=p.length;i<l;i++){var s=p[i].style;s.fill='#'+c;} var p2=document.getElementsByTagName('polygon');for(var i=0,l=p2.length;i<l;i++){var s=p2[i].style;s.fill='#'+c;} var p3=document.getElementsByTagName('circle');for(var i=0,l=p3.length;i<l;i++){var s=p3[i].style;s.fill='#'+c;} }
        ]]>
</script>
</svg>
